<svg xmlns="http://www.w3.org/2000/svg" viewBox="0 0 177.81 56.77"><defs><style>.cls-1{fill:#fff;}.cls-2{fill:#eaeaea;}.cls-3{fill:#020003;}</style></defs><g id="Camada_2" data-name="Camada 2"><g id="Camada_1-2" data-name="Camada 1"><path class="cls-1" d="M75.9,33.6V43.87a2.05,2.05,0,0,0,.51,1.55,2.56,2.56,0,0,0,1.75.48h2.49v4.52H77.27q-6.78,0-6.78-6.59V33.6H68V29.19h2.53V23.94H75.9v5.25h4.75V33.6Z"/><path class="cls-1" d="M103.79,29.19V50.42H98.38V47.74a7,7,0,0,1-2.7,2.16,8.44,8.44,0,0,1-3.62.79,8.87,8.87,0,0,1-4.4-1.06,7.38,7.38,0,0,1-3-3.1,10.26,10.26,0,0,1-1.09-4.89V29.19h5.36V40.88a5.49,5.49,0,0,0,1.27,3.89,4.49,4.49,0,0,0,3.44,1.36,4.56,4.56,0,0,0,3.49-1.36,5.53,5.53,0,0,0,1.26-3.89V29.19Z"/><path class="cls-1" d="M108.21,34a9.41,9.41,0,0,1,3.49-3.83,9.23,9.23,0,0,1,4.92-1.34,8.66,8.66,0,0,1,4.16,1,8.25,8.25,0,0,1,2.85,2.41v-3H129V50.42h-5.4V47.31a8.06,8.06,0,0,1-2.85,2.48,8.74,8.74,0,0,1-4.2,1,9,9,0,0,1-4.88-1.38,9.64,9.64,0,0,1-3.49-3.89,12.53,12.53,0,0,1-1.28-5.76A12.35,12.35,0,0,1,108.21,34Zm14.66,2.43a5.4,5.4,0,0,0-2.07-2.14,5.52,5.52,0,0,0-2.8-.75,5.38,5.38,0,0,0-2.76.73,5.51,5.51,0,0,0-2,2.12,6.73,6.73,0,0,0-.78,3.32,6.91,6.91,0,0,0,.78,3.35,5.64,5.64,0,0,0,2.07,2.2,5.19,5.19,0,0,0,2.74.77,5.52,5.52,0,0,0,2.8-.75,5.34,5.34,0,0,0,2.07-2.14,6.88,6.88,0,0,0,.76-3.35A6.92,6.92,0,0,0,122.87,36.45Z"/><path class="cls-1" d="M151.41,31.28A9.18,9.18,0,0,1,153.75,38V50.42h-5.37V38.69a5.49,5.49,0,0,0-1.26-3.88,4.46,4.46,0,0,0-3.45-1.36,4.59,4.59,0,0,0-3.51,1.36,5.45,5.45,0,0,0-1.28,3.88V50.42h-5.36V29.19h5.36v2.65a7.53,7.53,0,0,1,2.74-2.17,8.52,8.52,0,0,1,3.66-.78A8.17,8.17,0,0,1,151.41,31.28Z"/><path class="cls-1" d="M177.65,41.41H162.14A5.23,5.23,0,0,0,163.75,45a5,5,0,0,0,3.48,1.3,4.39,4.39,0,0,0,4.26-2.57h5.78a9.68,9.68,0,0,1-3.52,5,10.27,10.27,0,0,1-6.4,2,11,11,0,0,1-5.5-1.36,9.49,9.49,0,0,1-3.79-3.85,11.74,11.74,0,0,1-1.36-5.74A12,12,0,0,1,158,34a9.29,9.29,0,0,1,3.75-3.83,12.08,12.08,0,0,1,11,0,9.26,9.26,0,0,1,3.72,3.7,11.19,11.19,0,0,1,1.32,5.5A11.73,11.73,0,0,1,177.65,41.41Zm-5.4-3.6a4.22,4.22,0,0,0-1.49-3.31,5.31,5.31,0,0,0-3.57-1.25,4.91,4.91,0,0,0-3.35,1.21,5.32,5.32,0,0,0-1.66,3.35Z"/><path class="cls-1" d="M86.65,11.7v6.74A1.59,1.59,0,0,0,87,19.62a1.72,1.72,0,0,0,1.23.34h1.4v1.61H87.92a3.41,3.41,0,0,1-2.38-.73,3.18,3.18,0,0,1-.79-2.4V11.7H83.27V10.13h1.48V7.25h1.9v2.88h3V11.7Z"/><path class="cls-1" d="M101.88,16.56H92.74a3.6,3.6,0,0,0,3.72,3.59,3.51,3.51,0,0,0,2.05-.57A3.07,3.07,0,0,0,99.67,18h2a4.9,4.9,0,0,1-1.84,2.68,5.54,5.54,0,0,1-3.42,1A5.82,5.82,0,0,1,93.55,21a5.19,5.19,0,0,1-2-2.08,6.53,6.53,0,0,1-.73-3.12,6.58,6.58,0,0,1,.71-3.11,5,5,0,0,1,2-2.05A5.91,5.91,0,0,1,96.46,10a5.7,5.7,0,0,1,2.88.71,4.89,4.89,0,0,1,1.93,1.95,5.74,5.74,0,0,1,.68,2.8A9.21,9.21,0,0,1,101.88,16.56Zm-2.37-3.41A3.14,3.14,0,0,0,98.2,12a4.09,4.09,0,0,0-1.82-.41,3.56,3.56,0,0,0-2.46.92A3.72,3.72,0,0,0,92.77,15H100A3.49,3.49,0,0,0,99.51,13.15Z"/><path class="cls-1" d="M104,12.73a5.16,5.16,0,0,1,2-2.05,5.3,5.3,0,0,1,2.76-.73,5.1,5.1,0,0,1,2.61.64A4.31,4.31,0,0,1,113,12.22V10.13h1.92V21.57H113V19.44a4.54,4.54,0,0,1-1.68,1.66,5,5,0,0,1-2.6.66A5.16,5.16,0,0,1,106,21a5.3,5.3,0,0,1-2-2.11,6.61,6.61,0,0,1-.71-3.09A6.48,6.48,0,0,1,104,12.73Zm8.46.85a3.7,3.7,0,0,0-1.41-1.47,3.84,3.84,0,0,0-2-.52,3.77,3.77,0,0,0-1.94.51,3.59,3.59,0,0,0-1.4,1.46,4.62,4.62,0,0,0-.52,2.25,4.75,4.75,0,0,0,.52,2.29,3.71,3.71,0,0,0,1.4,1.48,3.77,3.77,0,0,0,1.94.51,3.84,3.84,0,0,0,2-.51,3.73,3.73,0,0,0,1.41-1.48,4.84,4.84,0,0,0,.52-2.27A4.73,4.73,0,0,0,112.49,13.58Z"/><path class="cls-1" d="M116.89,12.73a5.06,5.06,0,0,1,2-2.05,6.28,6.28,0,0,1,6.37.29,4.82,4.82,0,0,1,1.8,2.84h-2a3,3,0,0,0-1.14-1.65,3.46,3.46,0,0,0-2.1-.61,3.39,3.39,0,0,0-2.63,1.12,4.56,4.56,0,0,0-1,3.16,4.62,4.62,0,0,0,1,3.19,3.34,3.34,0,0,0,2.63,1.13,3.55,3.55,0,0,0,2.09-.58A3,3,0,0,0,125,17.9h2a5,5,0,0,1-1.83,2.8,5.48,5.48,0,0,1-3.45,1.06,5.74,5.74,0,0,1-2.89-.73,5.11,5.11,0,0,1-2-2.07,6.6,6.6,0,0,1-.71-3.13A6.53,6.53,0,0,1,116.89,12.73Z"/><path class="cls-1" d="M136.32,10.48A3.92,3.92,0,0,1,138,12.14a5.66,5.66,0,0,1,.59,2.69v6.74h-1.88V15.1a3.69,3.69,0,0,0-.85-2.62,3.08,3.08,0,0,0-2.34-.91,3.15,3.15,0,0,0-2.39.94,3.86,3.86,0,0,0-.89,2.74v6.32h-1.89V6.13h1.89v5.63a3.81,3.81,0,0,1,1.56-1.35A5,5,0,0,1,134,9.93,4.93,4.93,0,0,1,136.32,10.48Z"/><path class="cls-1" d="M151.2,16.56h-9.14a3.6,3.6,0,0,0,3.71,3.59,3.55,3.55,0,0,0,2.06-.57A3.13,3.13,0,0,0,149,18h2a4.88,4.88,0,0,1-1.83,2.68,5.55,5.55,0,0,1-3.43,1,5.87,5.87,0,0,1-2.91-.73,5.16,5.16,0,0,1-2-2.08,6.42,6.42,0,0,1-.73-3.12,6.46,6.46,0,0,1,.71-3.11,4.92,4.92,0,0,1,2-2.05,5.94,5.94,0,0,1,3-.72,5.64,5.64,0,0,1,2.88.71,4.83,4.83,0,0,1,1.93,1.95,5.64,5.64,0,0,1,.68,2.8C151.26,15.78,151.24,16.16,151.2,16.56Zm-2.38-3.41a3.11,3.11,0,0,0-1.3-1.19,4.1,4.1,0,0,0-1.83-.41,3.52,3.52,0,0,0-2.45.92A3.73,3.73,0,0,0,142.08,15h7.22A3.49,3.49,0,0,0,148.82,13.15Z"/><path class="cls-1" d="M156.26,10.47a4.42,4.42,0,0,1,2.26-.54v2H158q-3.2,0-3.19,3.46v6.22h-1.9V10.13h1.9V12A3.62,3.62,0,0,1,156.26,10.47Z"/><polyline class="cls-2" points="58.4 49.76 29.26 0 0.12 49.76"/><path class="cls-1" d="M58.63,50.42c0,3.51-13.13,6.35-29.31,6.35-4.37,0-8.51-.21-12.22-.58H17a79.16,79.16,0,0,1-8.41-1.27l-.47-.11C3.1,53.67,0,52.12,0,50.42a1.43,1.43,0,0,1,.16-.66c1.47-3.08,13.1-5.51,27.5-5.68h2c14,0,25.62,2.2,28.33,5.07A1.88,1.88,0,0,1,58.63,50.42Z"/><path class="cls-3" d="M29.26,26.43c-.91,0-1.12.59-1.12,1.18a5.7,5.7,0,0,0,.28,1.49,1.83,1.83,0,0,1,0,.77,1.94,1.94,0,0,1-1.16.38A11,11,0,0,1,24.5,29a7.66,7.66,0,0,1-2-2.35l-.42,0c-.13,0,.23-.52.06-1.44-.05-.27-.82-.8-.93-.8s.23.82.3,1.1a10.09,10.09,0,0,1-.07,1.45c0,.09-.21.36-.23.58a15,15,0,0,0,2.62,2.74,15.11,15.11,0,0,0,3.31,1.5c.12,0-.5,3.24-.58,4.61s.31,4.44.31,5.45a.94.94,0,0,0,.87,1v6.4h1.48"/><path class="cls-3" d="M29.26,26.43c.91,0,1.12.59,1.12,1.18a5.7,5.7,0,0,1-.28,1.49,2,2,0,0,0,0,.77,2,2,0,0,0,1.17.38A11.1,11.1,0,0,0,34,29a7.75,7.75,0,0,0,2-2.35s.33-.13.42,0a13.71,13.71,0,0,1-.06-1.44c0-.27.82-.8.93-.8s-.24.82-.3,1.1A10.27,10.27,0,0,0,37,26.91c0,.09.22.36.24.58a15.31,15.31,0,0,1-2.62,2.74,14.93,14.93,0,0,1-3.32,1.5c-.12,0,.51,3.24.59,4.61s-.32,4.44-.32,5.45a.93.93,0,0,1-.86,1v6.4H29.26"/><polyline class="cls-3" points="27.78 49.23 26.32 49.63 26.32 50.42 32.07 50.42 32.07 49.64 30.74 49.23"/></g></g></svg>