<svg xmlns="http://www.w3.org/2000/svg" viewBox="0 0 540.84 183.38"><defs><style>.cls-1,.cls-3,.cls-4{fill:#fff;}.cls-2{fill:#ccc;}.cls-3{font-size:77.1px;font-family:Poppins-SemiBold, Poppins;font-weight:600;letter-spacing:-0.02em;}.cls-4{font-size:60.27px;font-family:Poppins-Regular, Poppins;letter-spacing:-0.02em;}.cls-5{letter-spacing:-0.06em;}.cls-6{letter-spacing:-0.04em;}.cls-7{letter-spacing:-0.02em;}</style></defs><g id="Camada_2" data-name="Camada 2"><g id="Old_content" data-name="Old content"><g id="Conteúdo"><polygon class="cls-1" points="88.5 0 0.37 150.5 176.63 150.5 88.5 0"/><path class="cls-2" d="M177.33,152.5c0,10.61-39.69,19.21-88.66,19.21-13.2,0-25.71-.63-37-1.75l-.2,0a229,229,0,0,1-25.42-3.83l-1.45-.32C9.38,162.33,0,157.66,0,152.5a4.55,4.55,0,0,1,.48-2c4.45-9.31,39.62-16.66,83.19-17.18,1.65,0,3.32,0,5,0h1.17c42.33.11,77.5,6.65,85.69,15.33A5.7,5.7,0,0,1,177.33,152.5Z"/><path class="cls-2" d="M465.39,97.13a4.88,4.88,0,0,0-2-2.08,6,6,0,0,0-2.95-.71,6.4,6.4,0,0,0-3.26.83,5.74,5.74,0,0,0-2.25,2.33,8,8,0,0,0,0,7,5.79,5.79,0,0,0,2.25,2.35,6.49,6.49,0,0,0,3.26.82,5.78,5.78,0,0,0,4-1.38,6,6,0,0,0,1.89-3.75h-6.93v-2.41h10.17v2.36a9.1,9.1,0,0,1-9.14,7.91,9.58,9.58,0,0,1-4.75-1.2,9.09,9.09,0,0,1-3.41-3.36,10,10,0,0,1,0-9.72,9,9,0,0,1,3.42-3.36,10.07,10.07,0,0,1,10,.24,8.21,8.21,0,0,1,3.33,4.1Z"/><path class="cls-2" d="M474.63,109.57a6.77,6.77,0,0,1-2.63-2.65,8,8,0,0,1-.95-4,7.81,7.81,0,0,1,1-4,6.76,6.76,0,0,1,2.68-2.65,8.21,8.21,0,0,1,7.59,0A6.7,6.7,0,0,1,485,99a7.81,7.81,0,0,1,1,4,7.71,7.71,0,0,1-1,4,7.05,7.05,0,0,1-2.75,2.67,7.91,7.91,0,0,1-3.84.94A7.45,7.45,0,0,1,474.63,109.57Zm5.93-2.24a4.19,4.19,0,0,0,1.66-1.68,5.29,5.29,0,0,0,.64-2.7,5.47,5.47,0,0,0-.61-2.7,4.18,4.18,0,0,0-1.62-1.66,4.45,4.45,0,0,0-2.18-.56,4.35,4.35,0,0,0-2.16.56,4,4,0,0,0-1.58,1.66,5.7,5.7,0,0,0-.58,2.7,5.16,5.16,0,0,0,1.2,3.65,4,4,0,0,0,3,1.28A4.51,4.51,0,0,0,480.56,107.33Z"/><path class="cls-2" d="M462.89,119.12v2.47h-7.83V127h6.11v2.47h-6.11v8.08h-3V119.12Z"/><path class="cls-2" d="M478.43,123v14.63h-3v-1.73a5,5,0,0,1-1.87,1.42,5.87,5.87,0,0,1-2.46.52,6.52,6.52,0,0,1-3.09-.72,5.17,5.17,0,0,1-2.15-2.12,6.92,6.92,0,0,1-.78-3.4V123h3v8.15a4.21,4.21,0,0,0,1,3,3.49,3.49,0,0,0,2.68,1,3.52,3.52,0,0,0,2.69-1,4.18,4.18,0,0,0,1-3V123Z"/><path class="cls-2" d="M486.67,123.33a5.28,5.28,0,0,1,2.61-.62v3.13h-.77a3.69,3.69,0,0,0-2.69.9,4.35,4.35,0,0,0-.92,3.14v7.7h-3V123h3v2.12A4.92,4.92,0,0,1,486.67,123.33Z"/><path class="cls-2" d="M495.07,125.42v8.09a1.52,1.52,0,0,0,.39,1.18,1.88,1.88,0,0,0,1.31.36h1.86v2.53h-2.39a4.58,4.58,0,0,1-3.13-1,3.93,3.93,0,0,1-1.09-3.11v-8.09h-1.73V123H492v-3.64h3.05V123h3.56v2.47Z"/><path class="cls-2" d="M511.44,123.42a5.07,5.07,0,0,1,2.07,2.13,7,7,0,0,1,.76,3.4v8.63h-3V129.4a4.29,4.29,0,0,0-1-3,4,4,0,0,0-5.38,0,4.25,4.25,0,0,0-1,3v8.18h-3V117.93h3v6.72a5.23,5.23,0,0,1,1.95-1.44,6.68,6.68,0,0,1,2.59-.5A6.23,6.23,0,0,1,511.44,123.42Z"/><path class="cls-2" d="M530.89,131.39H519.71a4,4,0,0,0,1.3,2.81,4.12,4.12,0,0,0,2.87,1.07,3.54,3.54,0,0,0,3.45-2.05h3.27a6.64,6.64,0,0,1-2.41,3.31,7,7,0,0,1-4.31,1.28,7.47,7.47,0,0,1-3.76-.94,6.76,6.76,0,0,1-2.6-2.65,8.09,8.09,0,0,1-.94-4,8.28,8.28,0,0,1,.91-4,6.43,6.43,0,0,1,2.58-2.64,7.63,7.63,0,0,1,3.81-.93,7.47,7.47,0,0,1,3.69.9,6.35,6.35,0,0,1,2.52,2.54,7.62,7.62,0,0,1,.9,3.75A9.62,9.62,0,0,1,530.89,131.39ZM527.83,129a3.4,3.4,0,0,0-1.19-2.68,4.23,4.23,0,0,0-2.89-1,3.92,3.92,0,0,0-2.69,1,4.17,4.17,0,0,0-1.32,2.7Z"/><path class="cls-2" d="M538.23,123.33a5.25,5.25,0,0,1,2.61-.62v3.13h-.77a3.69,3.69,0,0,0-2.69.9,4.35,4.35,0,0,0-.92,3.14v7.7h-3V123h3v2.12A4.84,4.84,0,0,1,538.23,123.33Z"/><text class="cls-3" transform="translate(206.24 137.66)">tuane</text><text class="cls-4" transform="translate(206.9 75.73)">te<tspan class="cls-5" x="56.9" y="0">ac</tspan><tspan class="cls-6" x="127" y="0">he</tspan><tspan class="cls-7" x="198.12" y="0">r</tspan></text><path d="M117.93,87.54c0,.24,0,.48,0,.72-.38-15.83-13.33-26.43-29.25-26.43S59.79,72.43,59.42,88.26c0-.24,0-.48,0-.72a29.26,29.26,0,1,1,58.52,0Z"/><path d="M87.75,94.24s0,5.05.08,5.3A23.13,23.13,0,0,0,84.6,98c-2-.68-6-4.21-5.92-5.82s.76-1.8.21-2.59S78,87.86,76.13,89,74,91.22,74.82,92.53A49.34,49.34,0,0,0,82,101.06c3.52,3.33,7.35,6.19,9,5.6s1.18-8.25,1.18-8.25S87.75,89.67,87.75,94.24Z"/><path d="M88.22,88.45s-2.51.09-2.89-1.84-.71-3.22.1-4.52a4.73,4.73,0,0,1,3.12-1.65c2.46.06,2.66,1.94,3.31,3C93.1,85.62,93.44,87.57,88.22,88.45Z"/><path d="M85.26,131.22c0,5,3.22,16.22,3.19,17.21s-1.32,2.14-2,3a12.86,12.86,0,0,1-2.21,2.4c-.47.24-.5.68-.1.92a8.26,8.26,0,0,0,4,0,3.85,3.85,0,0,0,1.53-2.06c.24-.61,1.46-1.16,1.7-2s-.78-2.71-.78-3.8.52-6.48.67-8.06c.32-3.4-.9-7.43-.9-9.1s2.15-8,4.26-11.25c3.18-4.85,4.26-7.75,3.71-11.31-.42-2.67-3.45-5.89-4.11-8.11s.52-6.89.7-10.41-1.24-12.14-1.78-16.85c-.64-5.63-1.35-11.4-1.13-12.57a1.59,1.59,0,0,0-1-1.79,7.45,7.45,0,0,0-2.85-.26c-1.24,0-1.45.57-1.45,1.94s2.08.24,2.46,2.56c.31,1.88.69,6.86.69,8.37,0,2.92.21,8.2,0,11.34-.13,1.93-.33,4.29-3,8.22a12,12,0,0,0-1.44,9.82c.41,1.74,1.59,5.78,2.82,9.44.41,1.23-.75,4.23-1.3,6.28A94.79,94.79,0,0,0,85.26,131.22Z"/><path d="M87.81,145.36s-3.67,3.19-4.15,3.49-1.54.8-1.54,1.11,1,.32,2,.32,2.1-.73,3-.73a17.64,17.64,0,0,0,2.19-.2S89,144.16,87.81,145.36Z"/></g></g></g></svg>